<?xml version="1.0" standalone="no"?>
<!DOCTYPE svg PUBLIC "-//W3C//DTD SVG 1.1//EN" "http://www.w3.org/Graphics/SVG/1.1/DTD/svg11.dtd">
<svg xmlns="http://www.w3.org/2000/svg">
<metadata>Copyright (C) 2019 by original authors @ fontello.com</metadata>
<defs>
<font id="fontello" horiz-adv-x="1000" >
<font-face font-family="fontello" font-weight="400" font-stretch="normal" units-per-em="1000" ascent="850" descent="-150" />
<missing-glyph horiz-adv-x="1000" />
<glyph glyph-name="icon1" unicode="&#xe800;" d="M465 806c7 13 20 21 35 21 15 0 28-8 35-21l124-252c6-12 17-20 29-22l279-40c14-2 27-12 31-26 5-14 1-30-10-40l-201-196c-9-9-13-22-11-35l47-277c3-15-3-29-15-38-12-9-28-10-41-3l-249 131c-11 6-25 6-36 0l-249-131c-13-7-29-6-41 3-12 9-18 23-15 38l47 277c3 13-2 26-11 35l-201 196c-11 10-15 26-10 40 5 14 17 24 31 26l279 40c12 2 23 10 29 22l124 252z" horiz-adv-x="1000" />

<glyph glyph-name="icon3" unicode="&#xe801;" d="M929 709c-47 47-112 70-196 70-23 0-46-4-70-12-24-8-47-19-67-33-21-13-39-26-54-38-14-12-29-25-42-38-13 13-27 26-42 38-15 12-33 25-54 38-20 14-43 25-67 33-24 8-47 12-70 12-84 0-149-23-196-70-47-46-71-110-71-192 0-24 4-50 13-77 9-26 19-48 30-67 11-19 24-37 38-54 14-18 24-30 31-37 6-7 12-12 15-15l348-336c7-6 15-10 25-10s18 4 25 10l347 335c85 86 128 169 128 251 0 82-24 146-71 192z" horiz-adv-x="1000" />

<glyph glyph-name="search" unicode="&#xe802;" d="M975-46l-203 204c57 72 92 164 92 264 0 236-192 428-429 428-236 0-428-192-428-428s192-429 428-429c93 0 178 30 248 80l205-205c24-24 63-24 87 0 24 24 24 63 0 86z m-302 252c-8-3-16-7-22-14-6-6-11-13-14-20-55-45-125-72-202-72-177 0-321 144-321 322s144 321 321 321 322-144 322-321c0-83-32-159-84-216z" horiz-adv-x="1000" />

<glyph glyph-name="location-pin" unicode="&#xe803;" d="M500 850c-214 0-388-174-388-388 0-311 351-600 351-600 20-16 54-16 75 0 0 0 351 289 351 600-1 214-174 388-389 388z m0-584c-108 0-195 88-195 196 0 107 87 195 195 195s195-88 195-195c0-108-87-196-195-196z" horiz-adv-x="1000" />

<glyph glyph-name="icon4" unicode="&#xe804;" d="M529 417c-11-11-11-29 0-40 45-45 45-119 0-164l-239-239c-45-45-119-45-164 0l-36 36c-45 46-45 119 0 165l238 238c11 11 11 28 0 39s-28 11-39 0l-238-238c-33-32-51-76-51-122 0-46 18-89 51-122l35-35c34-34 78-51 122-51s88 17 122 51l238 238c67 67 67 176 0 244-11 11-28 11-39 0z m421 313l-36 35c-67 67-177 67-244 0l-238-238c-67-67-67-176 0-243 11-11 29-11 40 0s11 28 0 39c-46 45-46 119 0 165l238 238c45 45 119 45 164 0l36-36c46-45 46-119 0-165l-238-238c-11-11-11-28 0-39 5-6 13-9 20-9s14 3 19 9l239 238c32 32 50 76 50 122 0 46-18 89-50 122z" horiz-adv-x="1000" />

<glyph glyph-name="arrow-in-menu" unicode="&#xe805;" d="M0 322l389-389v222c389 56 555 334 611 612-139-195-333-284-611-284v228l-389-389z" horiz-adv-x="1000" />

<glyph glyph-name="crown" unicode="&#xe808;" d="M917-60c0 14-16 26-35 26h-679c-19 0-34-12-34-26v-54c0-15 15-26 34-26h679c19 0 35 11 35 26v54z m112 591c-13 6-29 4-40-3l-234-166-169 343c-6 6-16 10-27 10 0 0 0 0 0 0-10 0-20-4-26-10l-179-345-234 166c-11 8-27 10-40 4-13-6-20-17-17-28l131-455c3-12 17-20 33-20h655c15 0 30 8 33 20l131 457c3 11-4 22-17 27z m-529 269c0-28 27-51 60-51s60 23 60 51-27 50-60 50-60-22-60-50z m-381-191c0 28-26 50-59 50s-60-22-60-50 27-50 60-50 59 22 59 50z m941 50c-33 0-60-22-60-50s27-50 60-50c33 0 59 22 59 50s-26 50-59 50z" horiz-adv-x="1134" />

<glyph glyph-name="icon10" unicode="&#xe809;" d="M500 783c-276 0-500-176-500-393 0-102 50-196 132-266-3-68-17-160-67-207 96 0 193 63 251 108 57-18 119-28 184-28 276 0 500 176 500 393s-224 393-500 393z" horiz-adv-x="1000" />

<glyph glyph-name="heart-2" unicode="&#xe80a;" d="M500-110l-70 70c-260 230-430 385-430 575 0 155 120 275 275 275 85 0 170-40 225-105 55 65 140 105 225 105 155 0 275-120 275-275 0-190-170-345-430-575l-70-70z" horiz-adv-x="1000" />

<glyph glyph-name="increase" unicode="&#xe80b;" d="M268 202h-180c-16 0-29-13-29-30v-205h238v205c0 17-13 30-29 30z m293 175h-176c-16 0-29-13-29-29v-381h234v381c0 16-13 29-29 29z m430 230l-205 234c-11 12-30 12-41 0l-205-234c-9-8-11-21-7-32 5-11 16-18 28-18h87v-590h235v590h88c12 0 22 7 27 18 4 11 2 24-7 32z" horiz-adv-x="1000" />

<glyph glyph-name="form-1" unicode="&#xe80c;" d="M267 229h-219c-25 0-44 21-44 44v246c0 25 21 44 44 44h219c25 0 43-21 43-44v-244c0-25-18-46-43-46z m377 0h-219c-25 0-44 21-44 44v246c0 25 21 44 44 44h219c25 0 44-21 44-44v-244c0-25-19-46-44-46z m381 0h-221c-25 0-44 21-44 44v246c0 25 21 44 44 44h219c25 0 44-21 44-44v-244c2-25-17-46-42-46z m-760-379h-219c-25 0-46 21-46 46v244c0 25 21 43 44 43h219c25 0 43-20 43-43v-244c2-25-16-46-41-46z m377 0h-219c-25 0-44 21-44 44v246c0 25 21 43 44 43h219c25 0 43-20 43-43v-244c0-25-18-46-43-46z m381 0h-219c-25 0-44 21-44 44v246c0 25 21 43 44 43h219c25 0 44-20 44-43v-244c0-25-19-46-44-46z m19 792h-994c-25 0-44 21-44 43v121c-2 23 19 44 44 44h994c25 0 43-21 43-44v-118c0-25-18-46-43-46z" horiz-adv-x="1085" />

<glyph glyph-name="photo-download-blue" unicode="&#xe80d;" d="M511 408c-41 0-74-33-74-75s33-74 74-74c42 0 75 33 75 74 0 45-33 75-75 75z m196 75h-58c-8 0-16 5-19 13l-17 47c-2 6-11 14-19 14h-166c-8 0-16-5-19-14l-17-47c-2-5-11-13-19-13h-61c-27 0-47-22-47-47v-221c0-28 22-47 47-47h390c27 0 47 22 47 47v218c5 28-14 50-42 50z m-196-268c-66 0-121 55-121 121s55 122 121 122 122-55 122-122c0-66-53-121-122-121z m180 185c-9 0-17 5-17 16 0 9 6 17 17 17 8 0 16-6 16-17 0-11-8-16-16-16z" horiz-adv-x="1000" />

<glyph glyph-name="pin" unicode="&#xe80e;" d="M644 258l123 299c83-5 142 18 153 46 40 96-481 309-520 213-13-31 14-88 77-141l-122-299c-81 12-137-5-157-53-18-44 84-113 203-165l-1-1-71-174c-13-32-34-121-18-127 16-7 63 72 76 104l71 173 0 1c121-46 243-68 261-24 19 48-9 99-75 148z" horiz-adv-x="1000" />

<glyph glyph-name="icon16" unicode="&#xe80f;" d="M417 794l0 0c230 0 416-150 416-337s-186-337-416-337c-22 0-44 2-65 4-90-89-193-105-296-107v22c55 27 100 76 100 133 0 8 0 16-1 23-95 62-155 156-155 262 0 187 187 337 417 337z m448-755c0-49 31-91 79-115v-18c-89 2-171 15-249 92-18-3-37-4-56-4-83 0-159 23-220 60 125 1 244 41 334 114 45 36 81 79 106 127 27 52 40 106 40 162 0 9 0 18-1 27 63-52 102-123 102-201 0-90-52-171-134-224-1-7-1-14-1-20z" horiz-adv-x="1000" />

<glyph glyph-name="premium-badge" unicode="&#xe810;" d="M924 0c0 0-112 191-131 225 22 7 47 13 57 30 16 29-13 77-6 107 8 32 56 60 56 92 0 32-49 68-57 100-8 31 22 78 5 107-17 29-73 27-96 49-23 22-23 78-52 94-28 15-75-16-107-9-32 8-60 55-92 55-34 0-87-54-95-56-32-7-78 24-107 8-28-15-28-71-52-93-23-22-79-20-95-49-17-29 12-76 5-107-8-31-57-63-57-99 0-32 47-59 55-91 8-31-22-79-5-107 9-16 30-22 51-29 2 0 7-3 3-7-14-25-128-222-128-222-9-15-1-29 16-29l89-4c18-1 41-14 50-29l47-75c10-16 25-15 34 0 0 0 132 228 132 228 3 3 6 3 7 2 14-13 34-25 51-25 16 0 32 12 47 24 1 1 4 4 6-1 0 0 132-227 132-227 9-15 24-16 34 0l47 75c10 15 32 28 50 29l89 4c18 1 25 15 17 30z m-277 205c-98-57-215-51-305 6-131 84-174 258-95 394 79 138 255 186 394 110 0 0 1 0 2-1 1 0 2-1 3-1 43-25 80-61 106-106 82-141 34-320-105-402z m-23 466c0 1-1 1-1 1-74 43-169 46-248 0-118-68-158-220-89-338 21-36 49-64 82-85 3-2 6-3 9-5 118-68 269-28 337 90 68 118 28 269-90 337z m30-192l-42-40c-12-13-21-37-18-55l10-57c3-17-7-25-23-16l-51 26c-16 9-42 9-58 0l-51-26c-15-9-26-1-23 16l10 57c3 18-5 42-18 55l-41 40c-13 12-9 25 9 27l57 9c17 2 38 17 46 33l26 52c7 16 20 16 28 0l26-52c7-16 29-31 46-33l57-9c18-2 22-15 10-27z" horiz-adv-x="1000" />

<glyph glyph-name="settings-1" unicode="&#xe811;" d="M997 405c-2 15-18 25-32 25-46 0-87 27-104 68-17 43-6 93 28 124 11 10 12 26 3 38-23 29-50 56-79 80-12 9-28 7-38-3-30-34-83-46-125-28-43 18-70 61-67 108 0 15-10 28-25 29-37 5-75 5-112 1-15-2-26-14-25-29 1-46-26-89-69-107-41-16-94-4-124 29-9 10-26 12-37 3-30-24-57-51-81-80-9-12-8-28 3-38 35-32 46-81 28-125-17-41-60-67-109-67-16 0-27-10-29-25-4-37-4-76 0-114 2-14 19-24 33-24 43 1 85-26 102-69 18-43 7-92-27-123-11-10-12-27-3-38 23-30 49-56 79-80 11-9 28-8 38 3 30 33 83 46 124 28 44-18 71-62 68-109-1-15 10-27 25-29 19-2 38-3 57-3 19 0 37 1 55 3 15 1 26 14 25 28-2 47 26 89 69 107 41 17 94 4 124-28 10-11 26-12 37-3 30 23 57 50 81 80 9 11 8 28-3 38-35 31-46 81-28 124 17 41 58 68 102 68l7 0c14-1 27 10 29 25 4 38 4 76 0 113z m-496-223c-92 0-167 75-167 167 0 92 75 167 167 167 92 0 166-75 166-167 0-92-74-167-166-167z" horiz-adv-x="1000" />

<glyph glyph-name="send-comment" unicode="&#xe812;" d="M384 369l72-140c0 0 116 287 298 383-5-69-22-127 8-201-80-20-245-224-298-323-74 96-166 168-226 190l146 91z" horiz-adv-x="1000" />

<glyph glyph-name="icon20" unicode="&#xe813;" d="M500 450c-83 0-150-67-150-150 0-83 67-150 150-150 83 0 150 67 150 150 0 83-67 150-150 150z m400 150h-120c-17 0-34 13-39 28l-31 93c-6 16-23 29-40 29h-340c-16 0-34-13-39-28l-31-93c-6-16-24-29-40-29h-120c-55 0-100-45-100-100v-450c0-55 45-100 100-100h800c55 0 100 45 100 100v450c0 55-45 100-100 100z m-400-550c-138 0-250 112-250 250 0 138 112 250 250 250 138 0 250-112 250-250 0-138-112-250-250-250z m365 380c-19 0-35 16-35 35 0 19 16 35 35 35 19 0 35-16 35-35 0-19-16-35-35-35z" horiz-adv-x="1000" />

<glyph glyph-name="icon22" unicode="&#xe815;" d="M1000 289c-4 86-67 156-143 156-76 0-135-62-135-62s-56 62-134 62c-77 0-139-71-144-156-2-48 12-85 32-118 39-66 246-201 246-201s207 134 247 201c20 33 33 70 31 118z m-584-153c-19 33-44 84-40 157 5 124 99 221 211 221 56 0 103-21 135-43 33 22 80 43 134 43 10 0 20-1 29-2-19 122-113 218-226 218-120 0-215-100-215-100s-89 100-215 100c-122 0-222-112-228-249-4-78 18-136 50-189 62-106 394-322 394-322s34 22 82 56c-48 37-91 77-111 110z" horiz-adv-x="1000" />

<glyph glyph-name="close-envelope" unicode="&#xe817;" d="M500 207l-124 108-353-303c12-12 30-19 49-19h856c19 0 36 7 49 19l-353 303-124-108z m477 481a72 72 0 0 1-49 19h-856c-19 0-36-7-49-19l477-409 477 409z m-977-44v-593l345 293z m655-300l345-293v594z" horiz-adv-x="1000" />

<glyph glyph-name="icon27" unicode="&#xe819;" d="M673 691c-13 14-36 14-50 0-14-14-14-36 0-50l256-255h-844c-19 0-35-16-35-36 0-19 16-35 35-35h844l-256-256c-14-14-14-36 0-50 14-14 37-14 50 0l316 316c15 14 15 36 0 50l-316 316z" horiz-adv-x="1000" />

<glyph glyph-name="icon28" unicode="&#xe81a;" d="M313-90c-6-7-14-10-22-10s-17 3-23 10c-12 12-12 32 0 45l396 395-396 395c-12 13-12 33 0 45 13 13 33 13 45 0l418-417c12-13 12-33 0-45l-418-418z" horiz-adv-x="1000" />

<glyph glyph-name="icon26" unicode="&#xe81b;" d="M961 611c-26 26-57 39-94 39h-117l-26 71c-7 17-19 32-37 44-17 12-35 18-54 18h-266c-19 0-37-6-54-18-18-12-30-27-36-44l-27-71h-117c-36 0-68-13-94-39-26-26-39-57-39-94v-467c0-37 13-68 39-94 26-26 58-39 94-39h734c37 0 68 13 94 39 26 26 39 57 39 94v467c0 37-13 68-39 94z m-296-492c-46-46-101-69-165-69s-119 23-165 69c-45 45-68 100-68 164 0 65 23 120 68 165 46 46 101 69 165 69s119-23 165-69c46-45 68-100 68-165 0-64-22-119-68-164z m-165 314c-41 0-77-14-106-44-29-29-44-64-44-106 0-41 15-76 44-106 29-29 65-44 106-44 41 0 77 15 106 44 29 30 44 65 44 106 0 42-15 77-44 106-29 30-65 44-106 44z" horiz-adv-x="1000" />

<glyph glyph-name="bell-1" unicode="&#xe81c;" d="M382-31c0 0 0 0 0-1 0-65 53-118 118-118s119 53 119 118c0 1 0 1 0 1h-237z m497 149l-107 156c0 48 0 166 0 196 0 132-94 242-219 267v60c0 29-24 53-53 53s-53-24-53-53v-61c-125-24-219-134-219-266 0-52 0-166 0-196l-106-156c-12-17-13-38-4-56s28-29 48-29h668c20 0 38 11 48 29 9 18 8 39-3 56z" horiz-adv-x="1000" />

<glyph glyph-name="icon30" unicode="&#xe81d;" d="M997 406c-2 14-18 24-32 24-46 0-87 27-104 69-17 42-6 92 28 123 11 10 12 27 3 38-23 30-50 57-79 80-11 9-28 8-38-3-30-33-83-45-125-28-43 18-70 62-67 109 1 14-10 27-25 29-37 4-75 4-112 0-15-2-25-14-25-29 2-46-26-89-68-106-41-17-94-5-124 28-10 11-27 12-38 3-30-23-57-50-81-80-9-11-8-28 3-38 35-31 46-82 28-125-17-41-60-67-109-67-16 0-27-10-29-25-4-37-4-76 0-113 2-15 19-25 33-25 44 1 85-26 103-69 17-42 6-92-28-123-11-10-12-26-3-38 23-29 50-57 79-80 11-9 28-8 38 3 30 33 83 45 125 28 43-18 70-62 67-109-1-14 10-27 25-29 19-2 38-3 57-3 19 0 37 1 55 3 15 2 26 14 25 29-2 46 26 89 68 106 42 17 95 5 124-28 10-11 27-12 38-3 30 23 57 50 81 80 9 11 8 28-3 38-35 32-46 82-28 125 17 40 58 68 102 68l6-1c15-1 28 10 30 25 4 37 4 76 0 114z m-496-224c-92 0-167 75-167 167 0 92 75 167 167 167 92 0 167-75 167-167 0-92-75-167-167-167z" horiz-adv-x="1000" />

<glyph glyph-name="bin" unicode="&#xe81f;" d="M167-39c0-61 50-111 111-111h444c61 0 111 50 111 111v667h-666v-667z m722 833h-195l-55 56h-278l-55-56h-195v-111h778v111z" horiz-adv-x="1000" />

<glyph glyph-name="calendar-download" unicode="&#xe820;" d="M423 333c0 6-6 12-11 12h-42c-5 0-11-6-11-12v-41c0-5 6-11 11-11h42c5 0 11 6 11 11v41l0 0z m105 0c0 6-6 12-11 12h-42c-5 0-11-6-11-12v-41c0-5 6-11 11-11h42c5 0 11 6 11 11v41z m105 0c0 6-6 12-11 12h-42c-5 0-11-6-11-12v-41c0-5 6-11 11-11h42c5 0 11 6 11 11v41z m-210-104c0 5-6 11-11 11h-42c-5 0-11-6-11-11v-42c0-5 6-11 11-11h42c5 0 11 6 11 11v42l0 0z m105 0c0 5-6 11-11 11h-42c-5 0-11-6-11-11v-42c0-5 6-11 11-11h42c5 0 11 6 11 11v42z m105 0c0 5-6 11-11 11h-42c-5 0-11-6-11-11v-42c0-5 6-11 11-11h42c5 0 11 6 11 11l0 42 0 0z m77 339v-63c0-31-25-53-52-53h-34c-30 0-52 25-52 53v63h-149v-63c0-31-25-53-53-53h-38c-31 0-53 25-53 53v63c-25 0-47-22-47-47v-378c0-28 22-47 47-47h425c28 0 47 22 47 47v378c3 28-16 47-41 47z m-17-400c0-11-8-20-19-20h-359c-11 0-19 9-19 20v196c0 11 8 19 19 19h356c11 0 20-8 20-19l2-196 0 0z m-361 320h33c11 0 19 8 19 20v102c0 11-8 19-19 19h-33c-12 0-20-8-20-19v-105c3-9 11-17 20-17z m290 0h33c11 0 19 8 19 20v102c0 11-8 19-19 19h-33c-11 0-20-8-20-19v-105c3-9 11-17 20-17z" horiz-adv-x="1000" />

<glyph glyph-name="icon36" unicode="&#xe822;" d="M43 393c-24 0-43-19-43-43 0-24 19-43 43-43h182v86h-182z m813 344h-486c-80 0-145-64-145-144v-5-195h390l-83 83c-17 17-17 45 0 62 8 8 19 12 30 12 12 0 23-4 31-12l157-158c4-3 7-8 9-13 3-6 4-12 4-17 0-6-1-11-4-17-2-5-5-10-9-14l-157-157c-8-8-19-12-31-12-11 0-22 4-30 12-17 17-17 45 0 61l83 84h-390v-48-86-66c0-80 65-144 145-144h486c79 0 144 64 144 144v486c0 80-65 144-144 144z" horiz-adv-x="1000" />

<glyph glyph-name="checkbox-pen-outline" unicode="&#xe824;" d="M988 725l-90 90c-11 10-21 15-33 15-12 0-25-5-33-15l-74-72 156-155 72 71c20 19 20 50 2 66z m-295-752h-590v590h415l103 103h-555c-35 0-66-31-66-66v-662c0-37 31-66 66-66h662c36 0 65 31 65 66v471l-102-102 2-334 0 0z" horiz-adv-x="1000" />

<glyph glyph-name="checked-1" unicode="&#xe825;" d="M500 850c-277 0-500-223-500-500s223-500 500-500 500 223 500 500-223 500-500 500z m289-343l0 0-364-377c-4-5-9-7-16-7-7 0-13 2-16 7l-177 191-5 4c-4 5-6 11-6 16s2 11 6 16l32 32c9 9 23 9 32 0l2-3 125-134c5-4 12-4 16 0l305 316h2c9 9 23 9 32 0l32-32c9-6 9-20 0-29z" horiz-adv-x="1000" />

<glyph glyph-name="copy-copy" unicode="&#xe826;" d="M406 38c-98 0-177 79-177 177v427h-73c-64 0-115-52-115-115v-562c0-64 51-115 115-115h521c63 0 114 51 114 115v73h-385z m552 697c0 64-52 115-115 115h-437c-64 0-115-51-115-115v-520c0-64 51-115 115-115h437c63 0 115 51 115 115v520z" horiz-adv-x="1000" />

<glyph glyph-name="checked" unicode="&#xe827;" d="M12 312c-8 7-12 19-12 27s4 19 12 26l53 54c16 16 39 16 54 0l4-4 212-226c7-8 19-8 27 0l515 534h4l0 0c15 16 38 16 54 0l54-54c15-15 15-38 0-54l0 0-616-638c-8-8-15-12-27-12s-19 4-27 12l-300 323c0 0-7 12-7 12z" horiz-adv-x="1000" />

<glyph glyph-name="diamond" unicode="&#xe828;" d="M434 728l21 25h-228l-227-261h230l204 236z m-149-237h431l-118 137-98 114-148-173-67-78z m-282-41l428-451-205 451h-223z m725 0h-37l-157 0h-262l227-500 1-3 217 477 11 26z m-158-450l427 450h-223l-204-450z m430 492l-227 261h-228l225-261h230z" horiz-adv-x="1000" />

<glyph glyph-name="dislike" unicode="&#xe829;" d="M311 464c-8-11-14-25-14-38 0-14 6-25 14-35 11-11 21-14 35-14h70c0-3 0-5-2-5 0-3-3-3-3-6 0-2-3-2-3-5-3-6-5-11-8-14-3-2-3-8-5-16-3-5-3-13-3-19 0-2 0-8 0-11 0-2 0-5 0-10 0-6 3-9 3-14 0-3 2-8 5-11 3-5 5-8 11-11 3-2 8-5 16-5 5-3 14-3 22-3 5 0 8 3 11 6 2 2 5 8 8 13 2 6 2 8 5 14 0 2 3 8 3 16 2 8 2 11 2 16 0 3 3 8 6 14 3 5 5 8 8 11 5 5 13 16 24 29 8 11 16 22 25 30 8 11 16 14 19 16 5 0 8 3 10 6 3 2 6 8 6 10v163c0 5-3 8-6 10-2 3-8 6-10 6-6 0-19 3-41 11-14 5-24 8-30 10-8 3-16 6-29 9-14 2-25 2-36 2h-5-19-8c-22 0-38-8-49-19-11-10-13-27-13-46-6-5-11-13-14-24-2-11-2-19 0-30-8-10-11-21-11-35 0-8 3-13 6-21z m300-54h73c5 0 8 2 11 5 2 3 5 8 5 11v162c0 5-3 8-5 11-3 2-8 5-11 5h-73c-6 0-8-3-11-5-5-3-5-8-5-11v-162c0-6 2-8 5-11 3-3 5-5 11-5z m30 156c2 3 8 6 10 6 6 0 9-3 11-6 3-2 6-8 6-11 0-5-3-8-6-10-2-3-8-6-11-6-5 0-8 3-10 6-3 2-6 8-6 10 0 3 0 9 6 11z" horiz-adv-x="1027" />

<glyph glyph-name="facebook-social" unicode="&#xe82a;" d="M865 850h-730c-75 0-135-60-135-135v-730c0-75 60-135 135-135h360l1 357h-93c-12 0-22 10-22 22l-1 115c0 13 10 22 22 22h93v112c0 129 79 199 194 199h95c12 0 22-9 22-22v-97c0-12-10-22-22-22l-58 0c-63 0-75-30-75-73v-97h137c14 0 24-11 22-24l-13-115c-2-11-11-20-22-20h-124l-1-357h215c74 0 135 60 135 135v730c0 75-60 135-135 135z" horiz-adv-x="1000" />

<glyph glyph-name="facebook" unicode="&#xe82b;" d="M499 850c-276 0-499-223-499-499 0-276 223-499 499-499 276 0 499 223 499 499 2 276-223 499-499 499z m125-517h-81c0-131 0-290 0-290h-120c0 0 0 159 0 290h-57v103h57v66c0 48 22 121 120 121l89 0v-99c0 0-54 0-65 0s-24-6-24-28v-60h93l-12-103z" horiz-adv-x="1000" />

<glyph glyph-name="form-3" unicode="&#xe82c;" d="M372 379h-305c-35 0-61 29-61 61v343c0 35 29 61 61 61h305c35 0 61-29 61-61v-340c0-35-26-64-61-64z m1058 0h-837c-35 0-61 29-61 61v343c0 35 29 61 61 61h837c35 0 61-29 61-61v-340c0-35-26-64-61-64z m-1061-529h-305c-35 0-61 29-61 61v343c0 35 29 61 61 61h305c35 0 61-29 61-61v-340c0-35-26-64-61-64z m526 0h-305c-35 0-61 29-61 61v343c0 35 29 61 61 61h305c35 0 61-29 61-61v-340c0-35-26-64-61-64z m532 0h-305c-35 0-61 29-61 61v343c0 35 29 61 61 61h305c35 0 61-29 61-61v-340c0-35-26-64-61-64z" horiz-adv-x="1515" />

<glyph glyph-name="gallery" unicode="&#xe82d;" d="M959 745h-918c-22 0-41-19-41-41v-708c0-22 19-40 41-40h918c22 0 41 18 41 40v708c0 23-17 41-41 41z m-40-489l-167 133c-15 12-37 12-52-1l-188-163-249 280c-8 8-19 13-31 13s-22-4-30-12l-120-131v288h837v-407z m-419 383c-74 0-134-61-134-134s59-135 134-135 134 61 134 135c0 74-61 134-134 134z" horiz-adv-x="1000" />

<glyph glyph-name="heart" unicode="&#xe82e;" d="M500 580c-109 287-413 222-413-108 0-183 143-252 243-322 74-52 135-126 170-209 39 83 100 157 170 209 95 78 243 139 243 322 0 335-313 387-413 108z" horiz-adv-x="1000" />

<glyph glyph-name="settings" unicode="&#xe82f;" d="M608 163c0 4-1 7-4 11-19 23-35 43-47 60 8 14 13 27 17 39l81 13c3 0 6 2 8 5 3 4 4 7 4 11v96c0 3-1 7-4 10s-5 5-9 5l-79 12c-4 12-10 26-18 43 6 8 13 18 24 31 10 13 18 23 22 28 2 4 3 7 3 10 0 10-25 37-75 84-3 2-7 4-11 4-4 0-7-2-10-4l-61-46c-15 7-28 12-39 16l-12 80c-1 3-2 6-6 9-3 2-6 4-10 4h-97c-8 0-13-5-16-13-4-16-8-43-12-80-15-5-28-11-40-17l-60 47c-3 2-7 4-11 4-6 0-20-10-41-31-21-20-35-36-43-46-2-3-3-6-3-11 0-3 1-6 3-10 20-23 36-43 47-60-7-14-12-27-16-40l-81-12c-3 0-6-2-8-5-3-4-4-7-4-11v-96c0-4 1-7 4-10 2-3 5-5 9-5l79-13c4-13 10-27 18-42-5-8-14-19-24-32-11-14-18-23-22-28-2-3-3-6-3-10 0-9 25-37 75-83 3-3 7-4 11-4 4 0 8 1 10 4l61 46c15-7 28-13 39-16l12-80c1-3 2-6 6-9 3-3 6-4 10-4h97c8 0 13 4 16 13 4 16 8 43 12 81 14 4 27 9 40 16l60-47c3-3 7-4 11-4 6 0 20 10 41 31 20 21 35 36 43 47 2 2 3 5 3 9z m-180 93c-26-26-58-39-95-39-37 0-68 13-94 39-26 26-39 58-39 94 0 37 13 69 39 95 26 26 57 39 94 39 37 0 69-13 95-39 26-26 39-58 39-95 0-36-13-68-39-94z" horiz-adv-x="1000" />

<glyph glyph-name="highlighter" unicode="&#xe830;" d="M638-61l50-81c3-5 9-8 15-8h149c6 0 11 3 14 8 3 6 3 12 0 17l-85 147c-1 0-2-1-3-2l-140-81z m-248 222l50-86c2-4 6-7 10-8 5-1 9-1 13 1 9 5 19 5 28 2 34-9 75-48 104-99 2-3 6-6 10-7 2-1 3-1 4-1 3 0 6 1 9 2l3 2 28 17 87 50 26 15c1 1 2 1 2 2 7 6 8 14 4 21-44 77-45 148-17 164 8 4 10 14 6 23l-49 86-318-184z m-244 483l229-453 314 182-272 421c-36 55-108 72-165 39l-61-35c-53-31-73-99-45-154z m199 122c-4 7-2 18 6 22 7 5 17 3 22-4l222-354c5-8 3-18-5-23-8-4-18-2-23 6l-222 353 0 0z" horiz-adv-x="1000" />

<glyph glyph-name="home" unicode="&#xe831;" d="M1000 272l-187 187v282h-125v-157l-188 188-500-500v-31h125v-313h313v188h125v-188h312v313h125v31z" horiz-adv-x="1000" />

<glyph glyph-name="write-icon" unicode="&#xe832;" d="M689 420c0 22-18 39-40 39h-402c-21 0-39-17-39-39s18-39 39-39h402c22 0 40 18 40 39z m-442-117c-21 0-39-17-39-39s18-39 39-39h244c22 0 40 18 40 39s-18 39-40 39h-244z m92-375h-131c-43 0-78 35-78 78v688c0 43 35 78 78 78h481c43 0 78-35 78-78v-240c0-22 17-39 39-39s39 17 39 39v240c0 86-70 156-156 156h-481c-86 0-156-70-156-156v-688c0-86 70-156 156-156h131c21 0 39 18 39 39s-18 39-39 39z m575 356c-46 46-120 46-166 0l-214-213c-5-5-8-11-10-17l-47-153c-4-14 0-29 10-39 7-8 17-12 28-12 3 0 7 1 10 2l157 43c7 2 13 6 18 10l214 214c46 46 46 120 0 165z m-262-316l-79-22 23 76 145 144 55-55-144-143z m207 206l-8-8-55 56 7 7c16 16 40 16 56 0s15-40 0-55z m-210 442h-402c-21 0-39-18-39-39s18-39 39-39h402c22 0 40 17 40 39s-18 39-40 39z" horiz-adv-x="1000" />

<glyph glyph-name="instagram-social" unicode="&#xe833;" d="M688 850h-375c-173 0-313-140-313-312v-375c0-173 140-313 313-313h375c172 0 312 140 312 313v375c0 172-140 312-312 312z m218-687c0-121-98-219-218-219h-375c-121 0-219 98-219 219v375c0 120 98 218 219 218h375c120 0 218-98 218-218v-375z m-406 437c-138 0-250-112-250-250s112-250 250-250 250 112 250 250-112 250-250 250z m0-406c-86 0-156 70-156 156 0 86 70 156 156 156s156-70 156-156c0-86-70-156-156-156z" horiz-adv-x="1000" />

<glyph glyph-name="instagram" unicode="&#xe834;" d="M596 350c0-53-43-96-96-96s-96 43-96 96 43 96 96 96 96-43 96-96z m128 169c-5 13-12 24-22 33-9 10-20 17-33 22-10 4-25 8-53 10-30 1-39 2-116 2-77 0-86-1-116-2-28-2-43-6-53-10-13-5-24-12-33-22-10-9-17-20-22-33-4-10-8-25-10-53-1-30-1-39-1-116 0-77 0-86 1-116 2-28 6-43 10-53 5-13 12-24 22-33 9-10 20-17 33-22 10-4 25-8 53-10 30-1 39-1 116-1 77 0 86 0 116 1 28 2 43 6 53 10 25 10 45 30 55 55 4 10 8 25 10 53 1 30 2 39 2 116 0 77-1 86-2 116-2 28-6 43-10 53z m-224-316c-81 0-147 66-147 147s66 148 147 148c81 0 148-67 148-148s-67-147-148-147z m153 266c-19 0-34 15-34 34s15 35 34 35 35-16 35-35c0-19-16-34-35-34z m-153 381c-276 0-500-224-500-500s224-500 500-500 500 224 500 500-224 500-500 500z m285-618c-1-31-6-52-13-70-15-39-45-69-84-84-18-7-39-12-70-13-30-2-40-2-118-2-78 0-88 0-118 2-31 1-52 6-70 13-19 7-37 19-51 33-14 14-26 32-33 51-7 18-12 39-13 70-2 30-2 40-2 118s0 88 2 118c1 31 6 52 13 70 7 19 19 37 33 51 14 15 32 26 51 33 18 7 39 12 70 13 30 2 40 2 118 2s88 0 118-2c31-1 52-6 70-13 19-7 37-18 51-33 15-14 26-32 33-51 7-18 12-39 13-70 2-30 2-40 2-118s0-88-2-118z" horiz-adv-x="1000" />

<glyph glyph-name="document" unicode="&#xe835;" d="M854 737h-29v-719c0-47-39-86-87-86h-296-235v-27c0-30 24-55 55-55h296 296c31 0 55 25 55 55v777c0 30-24 55-55 55z m-412-774h296c31 0 55 25 55 55v719 58c0 30-24 55-55 55h-296-98v-18c0-2 0-4 0-6v-120-31c0-43-35-78-78-78h-31-120c-2 0-3 0-5 0h-19v-579c0-30 25-55 55-55h61 235l0 0z m11 188h-193c-14 0-26 12-26 26 0 15 12 26 26 26h193c15 0 26-11 26-26 0-14-11-26-26-26z m193 133h-386c-14 0-26 12-26 26 0 15 12 26 26 26h386c15 0 27-11 27-26 0-14-12-26-27-26z m-386 194h386c15 0 27-12 27-26s-12-26-27-26h-386c-14 0-26 11-26 26s12 26 26 26z m-145 150h151c0 0 0 0 1 0 25 0 45 21 45 46 0 0 0 0 0 1v151c0 14-11 23-23 23-6 0-11-2-16-7l-175-174c-14-15-4-40 17-40z" horiz-adv-x="1000" />

<glyph glyph-name="envelope" unicode="&#xe836;" d="M911-43c22 0 42 8 58 22l-283 284c-7-5-13-10-20-14-21-16-38-28-51-37-13-9-31-18-53-27-22-9-42-13-61-13h-1 0c-19 0-40 4-62 13-22 9-39 18-52 27-14 9-31 21-52 37-6 4-12 9-19 14l-284-284c16-14 36-22 58-22h822z m-855 484c-21 14-40 30-56 48v-431l250 250c-50 35-115 79-194 133z m888 0c-76-51-140-96-194-133l250-250v431c-16-17-35-33-56-48z m-33 302h-822c-28 0-50-10-66-29-15-19-23-44-23-73 0-23 10-48 31-76 20-27 42-49 65-64 13-9 51-36 114-80 35-24 65-44 90-62 22-15 41-29 57-40 1-1 4-3 8-6 4-3 9-6 15-11 13-8 23-15 31-21 8-5 17-11 29-18 11-7 22-12 32-15 10-3 19-5 28-5h0 1c8 0 18 1 28 5 10 3 20 8 32 15 11 7 21 13 29 18 8 6 18 13 30 21 6 5 11 8 15 11 4 3 7 5 9 6 12 9 31 22 56 40 47 32 115 79 205 142 27 19 50 42 68 68 18 27 27 55 27 85 0 24-8 45-26 63-18 17-39 26-63 26z" horiz-adv-x="1000" />

<glyph glyph-name="location-2" unicode="&#xe837;" d="M828 601c-3 13-10 28-16 40-64 154-204 209-316 209-152 0-318-101-340-310v-43c0-2 1-18 1-26 13-99 91-205 150-305 63-106 129-211 193-316 40 68 80 138 119 204 11 20 23 39 34 58 7 13 21 25 27 37 63 115 165 232 165 346v48c0 12-16 55-17 58z m-330-214c-44 0-93 22-117 83-3 10-3 30-3 32v27c0 78 66 114 124 114 71 0 126-57 126-128 0-71-59-128-130-128z" horiz-adv-x="1000" />

<glyph glyph-name="calendar" unicode="&#xe839;" d="M895 729h-76v52c0 38-31 69-69 69h-3c-38 0-69-31-69-69v-52h-356v52c0 38-31 69-69 69h-3c-38 0-69-31-69-69v-52h-76c-38 0-69-31-69-69v-741c0-38 31-69 69-69h790c38 0 69 31 69 69v741c0 38-31 69-69 69z m-47-770h-696v561h696v-561z m-602 308h121c6 0 11 5 11 11v120c0 6-5 11-11 11h-121c-6 0-11-5-11-11v-120c0-6 5-11 11-11z m194 0h120c6 0 11 5 11 11v120c0 6-5 11-11 11h-120c-6 0-11-5-11-11v-120c0-6 5-11 11-11z m193 0h121c6 0 11 5 11 11v120c0 6-5 11-11 11h-121c-6 0-11-5-11-11v-120c0-6 5-11 11-11z m-387-194h121c6 0 11 5 11 11v120c0 6-5 11-11 11h-121c-6 0-11-5-11-11v-120c0-6 5-11 11-11z m194 0h120c6 0 11 5 11 11v120c0 6-5 11-11 11h-120c-6 0-11-5-11-11v-120c0-6 5-11 11-11z m193 0h121c6 0 11 5 11 11v120c0 6-5 11-11 11h-121c-6 0-11-5-11-11v-120c0-6 5-11 11-11z m-384 532l0 0c-47 0-86 38-86 86v134c0 47 39 86 86 86h0c47 0 86-39 86-86v-134c0-47-39-86-86-86z m494 0l0 0c-47 0-86 38-86 86v134c0 47 39 86 86 86h0c47 0 86-39 86-86v-134c0-47-39-86-86-86z" horiz-adv-x="1000" />

<glyph glyph-name="lock" unicode="&#xe83a;" d="M830 446h-20v91c0 169-134 310-301 313-4 0-14 0-18 0-167-3-301-144-301-312v-92h-20c-30 0-54-31-54-69v-457c0-39 24-70 54-70h660c30 0 54 31 54 70v457c0 38-24 69-54 69z m-268-297v-139c0-16-13-29-29-29h-66c-16 0-29 13-29 29v139c-15 15-24 36-24 59 0 44 34 81 77 83 4 0 14 0 18 0 43-2 77-39 77-83 0-23-9-44-24-59z m120 297h-173-18-173v91c0 101 82 184 182 184s182-83 182-184l0-91 0 0z" horiz-adv-x="1000" />

<glyph glyph-name="logo-1" unicode="&#xe83b;" d="M867 265c-45-72-89-118-138-118-183 0-113 444-100 536-78-147-74-284-119-424-10-26-31-89-57-104-10-6-19-8-46-8-22 0-17 19-17 36 2 178-49 262-53 491-28-85-28-135-34-220-6-121-23-225-51-267-57-89-144-68-220-7-19 15-30 32-34 51-6 32 74 166 127 5 23-41 59-41 76-24 95 91 51 373 106 511 15 38 24 68 28 70 14 8 51 10 67 10 5 0 9-4 9-10 17-87 23-182 40-274 19-105 28-188 24-252 12 19 23 68 35 147 18 112 37 196 58 252 10 27 25 53 40 78 17 25 28 38 38 40 28 5 53 9 72 9 7 0 11-2 11-7 2-6 0-21-5-42-12-53-18-123-19-212-2-89 1-159 11-212 11-59 32-89 64-89 27 0 53 24 82 75l5-41 0 0z m381-17c-21-36-55-70-70-84-15-13-30-20-45-20-40 0-63 30-74 111-17-41-36-62-53-81-17-19-38-30-59-30-21 0-42 11-61 36-19 24-32 53-37 89-8 43-6 85 9 125 21 58 70 130 138 130 31 0 57-24 68-49 4 6 71 34 78 36 25 2 13-25 11-47l-5-65c-6-64-6-110-2-132 15-91 85-19 106 11v-30l-4 0z m-265-19c25 0 55 17 68 66 12 42 21 199-45 199-25 0-44-25-57-74-13-49-17-95-10-136 2-15 8-29 17-38 8-13 16-17 27-17l0 0z m545 15c-54-80-147-150-236-63-25 25-42 55-48 95-19 137 25 252 139 252 47 0 92-32 94-100 0-8 2-14 0-19-3-12-43-44-62-40-10 2-13 27-13 32-2 23-6 89-35 89-53 0-51-121-45-155 25-146 136-169 208-53v-38l-2 0z m553 9c-35-51-104-125-151-107-55 20-44 123-40 170 4 62 8 127-13 125-27-4-49-38-59-57-7-15-15-42-15-53l-2-62-2-67c-2-49-2-36-51-51-26-7-40-7-40 29l4 145c0 14 0 33 0 57 0 25-2 40-2 46-2 9-5 15-11 15 0 0-2 0-4 0-2 0-2-2-4-2-19-11-45-47-62-74-10-15-13-43-13-64 0-25 1-57 3-78 4-44 16-66-15-74-72-19-70-34-79 55-6 55-6 133-4 163 2 40 9 140 21 138 123 29 75 17 72-117 51 91 92 136 128 136 33 0 50-40 55-68 2-9 4-27 6-51 23 34 72 119 119 119 34 0 53-40 57-68 6-30 6-72 0-121-5-49-7-82-4-97 12-64 88 15 101 38l5-25 0 0z m271 36c-26-81-117-212-233-108-24 27-41 59-47 101-11 62-2 119 25 168 28 52 62 76 108 76 45 0 92-24 100-70 13-87-40-131-148-155 19-57 49-84 91-84 48 0 68 44 91 86l13-14 0 0z m-206 29c59 21 83 74 74 131-6 28-15 41-32 41-55 0-48-138-42-172l0 0z m324 134c13 25 26 44 40 57 13 12 30 19 49 19 24 0 47-11 66-34 19-23 32-53 38-89 11-64 2-123-25-178-28-53-64-81-108-81-11 0-22 1-30 5-8 4-19 12-32 23-2-57-2-233 4-288 0-6 2-10 2-13 3-34 9-53-16-61-72-19-70-34-79 55-12 108-2 375 0 479-13-32-19-49-29-64-5-11-15-11-26-15l4 13c30 55 45 127 58 203 6 28-1 26 27 32 76 28 57 21 57-63l0 0z m-4-235c17-24 34-36 49-36 25 0 44 23 55 67 11 45 13 89 6 130-4 23-12 40-21 55-9 14-21 21-34 21-10 0-19-5-29-15-9-9-15-23-17-36-3-13-5-38-5-72l-4-114 0 0z m165 184c7-13 13-26 22-40 18-24 35-51 48-77 15-29 24-59 32-91 2-8 4-15 4-23 0-4 2-9 4-13 3-6 13-6 19-6l28 0c8 0 23-2 30 4 8 6 10 26 10 36l2 25 5-12c17-28 48-51 82-49 36 0 74 26 94 55 25 32 38 68 46 108 11 66 6 132-30 191-21 34-53 65-95 68-36 4-70-15-97-39l-7-6 0 9c-2 59-2 120 2 178 0 10 1 19 1 29 0 4 0 9-3 13-4 4-10 4-14 6-9 2-18 2-26 4-11 1-21 5-32 9-6 2-15 6-21 2-6-4-8-17-8-25-2-15-3-28-9-41-10-23-25-52-53-52-8 0-15 2-23 8-9 8-15 23-19 34-4 10-7 23-13 32-4 4-8 6-11 6-8 0-25-19-29-23-9-11-21-26-19-41 4-19 17-33 32-44 17-11 36-19 55-19 40 0 72 30 91 63l8 13 0-17c-4-123 0-248 4-371l0-14-8 12c-4 5-8 11-13 15-10 11-21 23-32 34-19 17-36 34-57 49l0 0z m202 82c6 11 12 20 19 30 12 15 27 28 48 26 19-3 34-20 41-37 23-46 29-124 17-173-5-23-11-45-24-64-13-19-40-46-67-38-17 4-24 21-28 36-2 9-2 21-4 30 0 15 0 31-2 46 0 7 0 13 0 21l0 123 0 0 0 0z m-1335 53c0-10-40 30-13 100 25 66 85 70 115 70 88 0 171-59 258-59 167 0 117 70 178 63 10-2 15-30 13-46-11-125-208-87-236-81-82 23-163 66-224 68-51 4-87-30-91-115l0 0z m-888-588c9 0 19-1 28-7 8-4 15-12 19-19 4-8 8-17 8-28s-2-21-8-29c-4-7-11-15-19-19-7-4-17-7-28-7-8 0-15 1-21 3-6 4-11 8-17 14v-17h-19v149h19v-59c4 6 9 10 15 14 8 5 13 5 23 5l0 0z m-2-90c8 0 13 1 19 3 6 4 9 8 13 14 4 5 4 11 4 19 0 7-2 13-4 18-4 6-7 10-13 14-6 3-11 3-19 3-8 0-13-1-19-3-6-4-9-8-13-14-4-5-4-11-4-18 0-8 2-14 4-19 4-6 7-10 13-14 6-2 11-3 19-3l0 0z m201 37c0-1 0-3 0-5h-87c2-10 5-17 13-23 7-6 15-9 26-9 14 0 23 3 31 13l11-13c-6-6-11-10-17-14-8-4-15-4-25-4-11 0-20 2-30 8-9 4-15 11-21 19-5 8-7 17-7 28 0 10 2 19 7 29 4 7 12 15 19 19 8 4 17 7 27 7 9 0 19-2 26-7 8-4 14-12 19-19 6-10 8-19 8-29l0 0z m-53 38c-10 0-17-2-23-7-6-6-9-14-11-23h68c-2 9-4 17-12 23-5 3-13 7-22 7l0 0z m138 15c15 0 27-3 34-11 8-8 11-19 11-32v-65h-18v14c-4-6-8-10-14-12-5-2-13-3-21-3-11 0-20 3-28 9-8 6-11 13-11 23 0 9 3 17 9 23 8 5 17 9 32 9h31v4c0 7-2 15-8 19-6 3-11 7-21 7-5 0-13-2-19-4-5-1-11-5-15-7l-7 15c5 4 11 8 18 10 10 1 18 1 27 1l0 0z m-6-92c8 0 14 2 19 5 6 4 10 8 12 14v15h-29c-17 0-24-6-24-17 0-6 1-10 5-14 4-1 10-3 17-3l0 0z m209 92v-106h-19v16c-4-6-10-10-15-14-6-4-14-4-21-4-14 0-25 4-34 12-8 7-12 19-12 34v61h19v-59c0-10 2-19 8-23 5-6 11-7 21-7 9 0 19 3 24 9 6 6 10 15 10 27v54h19l0 0z m119-100c-2-2-6-4-11-6-4-2-8-2-14-2-11 0-19 4-24 10-6 6-10 13-10 25v58h-19v15h19v23h19v-23h30v-15h-30v-57c0-5 2-9 4-13 4-4 8-4 13-4 6 0 12 2 15 6l8-17 0 0z m138 100l-51-117c-4-11-9-19-15-23-6-4-13-7-23-7-5 0-9 0-15 2-6 1-9 3-11 7l7 15c6-5 12-7 19-7 4 0 10 2 12 4 3 1 5 7 9 13l4 7-48 106h21l38-85 36 85h17l0 0z m184 0c9 0 19-1 28-7 8-4 15-12 19-19 4-8 8-17 8-28s-2-21-8-29c-4-7-11-15-19-19-7-4-17-7-28-7-8 0-15 1-21 3-6 4-11 8-17 14v-55h-19v146h19v-18c4 6 10 10 17 14 6 5 13 5 21 5l0 0z m-2-90c8 0 13 1 19 3 6 4 9 8 13 14 4 5 4 11 4 19 0 7-2 13-4 18-4 6-7 10-13 14-6 3-11 3-19 3-8 0-13-1-19-3-6-4-9-8-13-14-4-5-4-11-4-18 0-8 2-14 4-19 4-6 7-10 13-14 6-2 11-3 19-3l0 0z m150-18c-12 0-21 2-29 8-7 4-15 11-19 19-5 8-7 17-7 28 0 12 2 19 7 29 6 7 12 15 19 19 8 4 17 7 29 7s20-2 28-7c8-4 15-12 19-19 6-8 8-17 8-29 0-11-2-19-8-28-6-8-11-15-19-19-8-6-17-8-28-8l0 0z m0 18c7 0 13 1 19 3 5 4 9 8 13 14 4 5 4 11 4 19 0 7-2 13-4 18-4 6-8 10-13 14-6 3-12 3-19 3-8 0-14-1-19-3-6-4-10-8-14-14-3-5-3-11-3-18 0-8 2-14 3-19 4-6 8-10 14-14 7-2 13-3 19-3l0 0z m123 71c4 6 7 12 15 14 6 4 15 5 25 5v-19c-2 0-2 0-4 0-12 0-19-3-25-9-6-6-9-15-9-26v-54h-19v107h19v-18l-2 0z m149-81c-2-2-5-4-11-6-4-2-8-2-13-2-12 0-19 4-25 10-6 6-9 13-9 25v58h-19v15h19v23h19v-23h30v-15h-30v-57c0-5 2-9 3-13 4-4 8-4 14-4 5 0 11 2 15 6l7-17 0 0z m86 100c15 0 26-3 34-11 7-8 11-19 11-32v-65h-19v14c-4-6-7-10-13-12-6-2-13-3-21-3-11 0-21 3-28 9-8 6-12 13-12 23 0 9 4 17 10 23 7 5 17 9 32 9h30v4c0 7-2 15-7 19-6 3-12 7-21 7-6 0-13-2-19-4-6-1-11-5-15-7l-8 15c6 4 12 8 19 10 10 1 17 1 27 1l0 0z m-6-92c8 0 13 2 19 5 6 4 9 8 11 14v15h-30c-17 0-25-6-25-17 0-6 2-10 6-14 6-1 11-3 19-3l0 0z m110 134h19v-150h-19v150l0 0z" horiz-adv-x="3066" />

<glyph glyph-name="meeting" unicode="&#xe83d;" d="M921 59l-2-4c-114-133-261-205-419-205-158 0-305 74-416 207l-3 2 0 5c21 140 96 251 205 316l7 5 7-7c54-56 123-86 200-86s147 30 200 86l7 7 7-5c112-65 184-176 205-316l2-5z m-421 291c137 0 249 112 249 249s-112 251-249 251-249-112-249-249 112-251 249-251z m-46-307l-3-5c-114-135-265-209-425-209-161 0-312 74-426 212l-2 4 0 5c21 142 95 258 209 323l7 5 7-7c53-56 125-86 202-86s149 30 203 86l7 7 7-5c114-65 188-179 209-323l5-7z m-428 298c139 0 255 114 255 256s-116 253-255 253-256-114-256-256 114-253 256-253z" horiz-adv-x="1000" />

<glyph glyph-name="phone-receiver" unicode="&#xe83f;" d="M1000 61c2-16-3-30-15-42l-141-140c-7-7-15-13-25-18-10-5-20-8-30-10-1 0-3 0-7 0-3-1-8-1-13-1-14 0-36 3-65 7s-67 16-110 34c-44 18-93 45-148 81-55 36-114 86-176 148-49 49-90 96-123 140-32 45-58 86-78 124-20 37-35 71-45 102s-16 57-20 80-5 39-4 52c1 13 1 20 1 21 2 10 5 20 10 30s11 19 18 25l141 141c9 10 21 15 33 15 10 0 18-3 25-8s13-12 18-20l113-215c7-11 8-23 6-37s-9-24-18-34l-52-51c-2-2-3-4-4-7s-2-6-2-8c3-15 10-32 19-51 9-17 22-38 40-62s42-53 75-84c32-33 60-58 85-76 24-18 45-31 62-40s29-13 38-15l13-3c1 0 3 1 7 2 3 1 5 2 7 3l60 62c13 11 27 17 44 17 12 0 22-2 29-7h1l204-120c15-9 24-21 27-35z" horiz-adv-x="1000" />

<glyph glyph-name="file" unicode="&#xe840;" d="M854 737h-29v-719c0-47-39-86-87-86h-296-235v-27c0-30 24-55 55-55h296 296c31 0 55 25 55 55v777c0 30-24 55-55 55z m-412-774h296c31 0 55 25 55 55v719 58c0 30-24 55-55 55h-296-98v-18c0-2 0-4 0-6v-120-31c0-43-35-78-78-78h-31-120c-2 0-3 0-5 0h-19v-579c0-30 25-55 55-55h61 235l0 0z m11 188h-193c-14 0-26 12-26 26 0 15 12 26 26 26h193c15 0 26-11 26-26 0-14-11-26-26-26z m193 133h-386c-14 0-26 12-26 26 0 15 12 26 26 26h386c15 0 27-11 27-26 0-14-12-26-27-26z m-386 194h386c15 0 27-12 27-26s-12-26-27-26h-386c-14 0-26 11-26 26s12 26 26 26z m-145 150h151c0 0 0 0 1 0 25 0 45 21 45 46 0 0 0 0 0 1v151c0 14-11 23-23 23-6 0-11-2-16-7l-175-174c-14-15-4-40 17-40z" horiz-adv-x="1000" />

<glyph glyph-name="photo-download" unicode="&#xe841;" d="M495 621c-152 0-279-125-279-279s124-279 279-279 279 124 279 279-128 279-279 279z m96-166c22 0 42-19 42-41s-20-42-42-42c-22 0-41 19-41 42s19 41 41 41z m-196 0c22 0 42-19 42-41s-20-42-42-42-41 19-41 42 19 41 41 41z m100-276c-72 0-133 47-155 110h312c-25-63-86-110-157-110z m11 224c-50 0-89-39-89-89 0-50 39-88 89-88 49 0 88 38 88 88 0 50-39 89-88 89z m234 88h-69c-11 0-19 8-22 17l-19 55c-3 8-14 16-22 16h-199c-11 0-19-8-22-16l-20-55c-2-9-13-17-22-17h-74c-33 0-58-28-58-58v-263c0-33 27-58 58-58h469c34 0 58 28 58 58v263c0 33-24 58-58 58z m-234-323c-81 0-147 66-147 146 0 80 66 147 147 147 80 0 146-67 146-147 0-80-64-146-146-146z m215 223c-11 0-19 9-19 20 0 11 8 19 19 19 11 0 19-8 19-19 0-11-8-20-19-20z" horiz-adv-x="1000" />

<glyph glyph-name="tick" unicode="&#xe842;" d="M985 703c-19 19-51 19-70 0l-599-599-231 230c-19 19-51 19-70 0-20-20-20-51 0-71l265-266c20-19 51-19 71 0l634 635c20 19 20 51 0 71z" horiz-adv-x="1000" />

<glyph glyph-name="arrow-down" unicode="&#xe843;" d="M59 536c-6 6-9 14-9 23s3 16 9 22c12 12 33 12 45 0l395-395 396 395c12 12 32 12 45 0s12-33 0-45l-418-417c-13-12-33-12-45 0l-418 417z" horiz-adv-x="1000" />

<glyph glyph-name="fire" unicode="&#xe844;" d="M873 265c-12 149-81 242-142 325-57 76-106 142-106 239 0 8-4 15-11 19-7 3-16 3-22-2-92-66-169-177-195-282-19-74-22-157-22-212-85 18-104 146-104 147-1 7-6 12-11 15-6 3-13 4-19 1-5-2-110-56-116-269 0-7 0-14 0-21 0-207 168-375 375-375 0 0 1 0 1 0 0 0 0 0 0 0 206 1 374 169 374 375 0 10-2 40-2 40z m-373-373c-69 0-125 59-125 133 0 2 0 5 0 8 1 31 7 52 13 66 12-26 34-50 69-50 12 0 21 10 21 21 0 30 1 64 8 95 7 27 22 56 42 80 9-30 26-55 43-79 24-34 49-70 53-130 1-4 1-7 1-11 0-74-56-133-125-133z" horiz-adv-x="1000" />

<glyph glyph-name="paperclip" unicode="&#xe845;" d="M888 234l-74 74-333 332c-61 61-160 61-221 0s-62-160-1-221l333-333c14-14 36-14 49 0 14 13 14 35 0 49l-333 333c-34 34-34 89 0 123s90 34 124 0l333-333 74-73c61-62 61-161 0-223-62-61-161-61-222 0l-62 62-345 345-25 25c-86 89-85 230 3 318 87 87 229 89 318 2l369-369c9-9 22-13 34-9 12 3 21 12 25 24 3 12 0 25-9 34l-370 370c-116 115-303 115-419-1-115-115-115-302 0-418l370-370 62-62c89-85 230-84 317 3 87 88 88 229 3 318z" horiz-adv-x="1000" />

<glyph glyph-name="location" unicode="&#xe846;" d="M828 601c-3 13-10 28-16 40-64 154-204 209-316 209-152 0-318-101-340-310v-43c0-2 1-18 1-26 13-99 91-205 150-305 63-106 129-211 193-316 40 68 80 138 119 204 11 20 23 39 34 58 7 13 21 25 27 37 63 115 165 232 165 346v48c0 12-16 55-17 58z m-330-214c-44 0-93 22-117 83-3 10-3 30-3 32v27c0 78 66 114 124 114 71 0 126-57 126-128 0-71-59-128-130-128z" horiz-adv-x="1000" />

<glyph glyph-name="logo" unicode="&#xe847;" d="M530 298c-17-26-33-43-51-43-69 0-43 165-38 200-29-55-27-106-44-159-4-10-12-33-21-39-4-2-7-2-17-2-9 0-7 7-7 13 1 66-18 98-20 183-10-32-10-50-12-82-2-45-9-84-19-100-22-33-54-25-82-2-7 5-12 12-13 19-2 12 27 62 47 2 9-16 22-16 29-9 35 34 19 139 39 191 6 14 9 25 11 26 5 3 19 3 24 3 3 0 4-1 4-3 6-33 9-68 15-103 7-39 10-70 9-94 4 7 9 26 13 55 7 42 14 73 22 94 3 10 9 20 15 29 6 10 10 14 14 15 10 2 19 4 26 4 3 0 4-1 4-3 1-2 0-8-2-16-4-19-6-46-7-79-1-33 1-59 4-79 4-22 12-33 24-33 10 0 20 9 31 28l2-16z m143-6c-8-13-21-26-27-31-5-5-11-8-17-8-14 0-23 11-27 42-6-16-14-23-20-31-6-7-14-11-22-11-8 0-15 4-22 14-8 9-12 19-15 33-2 16-2 32 4 47 8 21 26 48 52 48 11 0 21-9 25-18 1 2 26 13 29 13 9 1 5-9 4-17l-2-24c-2-24-2-41-1-50 6-34 32-7 40 4v-11l-1 0z m-99-8c9 0 20 7 25 25 4 16 8 74-17 74-9 0-16-9-21-27-5-19-6-36-4-51 1-6 3-11 7-14 3-5 6-7 10-7z m204 7c-21-30-55-56-88-24-10 9-16 21-18 36-7 51 9 94 52 94 17 0 34-12 35-38 0-3 1-5 0-7-2-4-16-16-23-15-4 1-5 10-5 12-1 9-3 34-13 34-20 0-19-46-17-58 9-55 51-63 78-20v-14z m206 3c-14-19-39-46-57-40-20 8-16 46-15 64 2 23 3 47-5 46-9-1-18-14-22-21-2-6-5-16-5-20l-1-23-1-25c0-18 0-13-19-19-10-3-15-3-15 11l2 54c0 5 0 12 0 21 0 9-1 15-1 17-1 4-2 6-4 6 0 0-1 0-1 0-1 0-1-1-2-1-7-4-17-17-23-27-4-6-5-17-5-24 0-10 1-22 1-29 2-17 6-25-5-28-27-7-27-13-30 20-2 21-2 50-2 61 1 15 4 53 8 52 46 11 29 6 27-44 19 34 35 51 48 51 12 0 19-15 21-25 0-4 1-10 2-20 8 13 27 45 44 45 13 0 20-15 22-25 2-12 2-27 0-46-3-18-3-30-2-36 4-24 33 6 38 14l2-9z m101 14c-10-31-44-80-87-41-9 10-16 22-18 38-4 23 0 44 9 63 11 19 24 28 41 28 17 0 34-9 37-26 5-33-15-49-55-58 7-21 18-31 34-31 18 0 25 16 34 32l5-5 0 0z m-76 10c21 8 31 28 27 49-2 11-6 16-12 16-21 0-18-52-15-65z m120 50c5 10 10 17 15 22 5 4 11 7 18 7 9 0 18-5 25-13 7-8 12-20 14-33 4-24 1-46-9-67-11-20-24-30-41-30-4 0-8 1-11 2-3 1-7 4-12 8-1-21-1-87 1-107 0-2 1-4 1-5 2-13 4-20-5-23-27-7-27-12-30 21-4 40-1 140 0 179-5-12-7-19-11-24-2-4-5-4-10-6l2 5c11 21 17 47 22 76 2 10-1 10 10 12 28 10 21 8 21-24l0 0z m-1-87c6-9 13-14 18-14 10 0 17 9 21 25 4 17 5 33 2 49-1 8-4 15-8 20-3 5-7 8-12 8-4 0-8-2-11-6-4-3-6-8-6-13-2-5-3-14-3-27l-1-42z m61 68c3-5 5-10 8-15 7-9 13-19 18-29 6-10 9-21 12-33 1-3 1-6 1-9 0-1 1-3 2-5 1-2 5-2 7-2l11 0c2 0 8-1 11 1 3 3 3 10 3 14l1 9 2-4c7-11 18-19 31-19 13 0 27 10 35 21 9 12 14 25 17 40 4 25 2 50-11 72-8 12-20 24-36 25-13 2-26-6-36-15l-3-2 0 4c0 22 0 44 1 66 0 4 1 7 1 11 0 1 0 3-2 5-1 1-3 1-5 2-3 1-7 1-9 1-5 1-8 2-12 4-3 0-6 2-8 0-2-1-3-6-3-9-1-5-1-10-4-15-3-9-9-19-19-19-3 0-6 0-9 2-3 3-6 9-7 13-1 4-3 9-5 12-1 2-3 2-4 2-3 0-9-7-11-8-3-4-8-10-7-16 2-7 7-12 12-16 7-4 14-7 21-7 15 0 27 11 34 23l2 5 0-6c-1-46 0-93 2-139l0-5-3 5c-1 2-3 4-5 5-3 4-8 9-12 13-7 6-13 13-21 18l0 0z m76 31c2 4 4 8 7 11 4 6 10 11 17 10 7-1 13-8 16-14 8-17 10-46 6-65-2-8-4-17-9-24-5-7-15-17-25-14-6 2-9 8-10 14-1 3-1 7-2 11 0 6 0 11 0 17 0 3 0 5 0 8l0 46 0 0z m-498 20c0-4-15 11-5 37 9 25 32 26 43 26 32 0 64-22 96-22 62 0 44 26 67 24 3-1 5-12 4-17-4-47-77-33-88-31-30 9-61 25-83 26-20 0-34-12-34-43z m-333-220c4 0 7 0 11-3 3-1 6-4 7-7 1-2 3-6 3-10s-1-8-3-11c-1-3-4-5-7-7s-6-3-11-3c-3 0-5 1-8 2-2 1-4 3-6 5v-7h-7v56h7v-22c2 2 4 4 6 5 3 2 5 2 8 2l0 0z m0-34c2 0 5 1 7 2 2 1 3 3 5 5 1 2 1 4 1 7s-1 5-1 7c-2 2-3 3-5 5-2 1-5 1-7 1-3 0-5 0-8-1-2-2-3-3-4-5-2-2-2-4-2-7s1-5 2-7c1-2 2-4 4-5 3-1 5-2 8-2l0 0z m75 14c0-1 0-2 0-2h-33c1-4 2-7 5-9 3-2 6-3 10-3 5 0 8 1 11 5l4-5c-2-2-4-4-6-5-3-2-6-2-9-2-4 0-8 1-11 3-4 2-6 4-8 7-2 3-3 7-3 11 0 3 1 7 3 10 1 3 4 6 7 7 3 2 6 3 10 3 3 0 7 0 10-3 2-1 5-4 7-7 2-2 3-6 3-10l0 0z m-20 15c-4 0-7-1-9-3-2-2-3-5-4-9h25c0 4-1 7-4 9-2 1-5 3-8 3l0 0z m51 5c6 0 10-1 13-4 3-3 4-7 4-12v-24h-7v5c-1-2-3-4-5-4-2-1-5-2-7-2-5 0-8 2-11 4-3 2-4 5-4 8 0 4 1 7 3 9 3 2 7 3 12 3h12v2c0 3-1 5-3 7-2 1-5 3-8 3-2 0-5-1-7-2-2 0-4-2-6-3l-3 6c3 1 5 3 7 4 4 0 7 0 10 0l0 0z m-2-34c3 0 5 0 7 2 2 1 4 3 5 5v5h-12c-6 0-9-2-9-6 0-2 1-4 2-5 2-1 5-1 7-1l0 0z m78 34v-39h-7v5c-1-2-4-3-6-5-2-1-5-1-7-1-5 0-10 1-13 4-3 3-4 7-4 13v23h7v-22c0-4 0-7 2-9 3-2 5-3 8-3 4 0 7 2 9 4 3 2 4 6 4 10v20h7l0 0z m45-37c-1-1-3-2-5-2-1-1-2-1-5-1-4 0-7 1-9 4-2 2-3 4-3 9v22h-7v5h7v9h7v-9h12v-5h-12v-22c0-2 1-3 2-5 1-1 3-1 5-1 2 0 4 1 5 2l3-6 0 0z m51 37l-19-44c-1-4-3-7-6-8-2-1-4-3-8-3-2 0-4 0-6 1-2 1-3 1-4 3l3 5c2-2 4-2 7-2 1 0 4 0 4 1 2 1 2 3 4 5l1 3-18 39h8l14-32 14 32h6l0 0z m69 0c3 0 7 0 10-3 3-1 6-4 7-7 2-2 3-6 3-10s0-8-3-11c-1-3-4-5-7-7-2-1-6-3-10-3-3 0-6 1-8 2-2 1-4 3-6 5v-21h-7v55h7v-7c1 2 3 4 6 5 2 2 5 2 8 2l0 0z m-1-34c3 0 5 1 7 2 2 1 4 3 5 5 2 2 2 4 2 7s-1 5-2 7c-1 2-3 3-5 5-2 1-4 1-7 1-3 0-5 0-7-1s-4-3-5-5c-1-2-1-4-1-7s0-5 1-7c1-2 3-4 5-5 2-1 5-2 7-2l0 0z m56-6c-4 0-8 1-11 3-2 1-5 4-7 7-2 3-3 6-3 11s1 7 3 10c2 3 5 6 7 7 3 2 7 3 11 3s8-1 11-3c2-1 5-4 7-7 2-3 2-6 2-10s0-8-2-11c-2-3-5-6-7-7-3-2-7-3-11-3l0 0z m0 6c3 0 5 1 7 2 2 1 4 3 5 5 1 2 1 4 1 7s0 5-1 7c-1 2-3 3-5 5-2 1-4 1-7 1-3 0-5 0-7-1-2-2-4-3-5-5-1-2-1-4-1-7s0-5 1-7c1-2 3-4 5-5 3-1 5-2 7-2l0 0z m46 27c1 2 3 4 6 5 2 2 5 2 9 2v-7c-1 0-1 0-2 0-4 0-7-1-9-3-2-2-3-6-3-10v-20h-7v40h7v-7l-1 0z m56-30c-1-1-2-2-4-2-2-1-3-1-5-1-5 0-7 1-10 4-2 2-3 4-3 9v22h-7v5h7v9h7v-9h11v-5h-11v-22c0-2 1-3 1-5 2-1 3-1 5-1 2 0 5 1 6 2l3-6 0 0z m32 37c5 0 10-1 12-4 3-3 5-7 5-12v-24h-7v5c-2-2-3-4-5-4-3-1-5-2-8-2-4 0-8 2-11 4-3 2-4 5-4 8 0 4 1 7 3 9 3 2 7 3 13 3h11v2c0 3-1 5-3 7-2 1-4 3-8 3-2 0-5-1-7-2-2 0-4-2-6-3l-2 6c2 1 4 3 7 4 3 0 6 0 10 0l0 0z m-2-34c3 0 5 0 7 2 2 1 4 3 5 5v5h-12c-6 0-9-2-9-6 0-2 1-4 2-5 2-1 4-1 7-1l0 0z m41 50h7v-56h-7v56z" horiz-adv-x="1611" />

<glyph glyph-name="form-2" unicode="&#xe848;" d="M87 844h259c49 0 87-38 87-87v-291c0-49-38-87-87-87h-259c-49 0-87 38-87 87v291c0 49 38 87 87 87z m529 0h259c49 0 87-38 87-87v-291c0-49-38-87-87-87h-259c-49 0-87 38-87 87v291c0 49 41 87 87 87z m529 0h259c50 0 87-38 87-87v-291c0-49-37-87-87-87h-259c-49 0-87 38-87 87v291c0 49 41 87 87 87z m-1058-526h259c49 0 87-38 87-87v-291c0-49-38-87-87-87h-259c-49 0-87 38-87 87v291c0 46 38 87 87 87l0 0z m529 0h259c49 0 87-38 87-87v-291c0-49-38-87-87-87h-259c-49 0-87 38-87 87v291c0 46 41 87 87 87l0 0z m529 0h259c50 0 87-38 87-87v-291c0-49-37-87-87-87h-259c-49 0-87 38-87 87v291c0 46 41 87 87 87l0 0z m-1084 927h1395c32 0 59-26 59-58v-174c0-32-27-58-59-58h-1395c-32 0-58 26-58 58v174c0 32 26 58 58 58l0 0z m311-866h-305c-35 0-61 29-61 61v343c0 35 29 61 61 61h305c35 0 61-29 61-61v-340c0-35-26-64-61-64z m526 0h-305c-35 0-61 29-61 61v343c0 35 29 61 61 61h305c35 0 61-29 61-61v-340c0-35-26-64-61-64z m532 0h-308c-35 0-61 29-61 61v343c0 35 29 61 61 61h305c35 0 61-29 61-61v-340c3-35-23-64-58-64z m-1061-529h-305c-35 0-61 29-61 61v343c0 35 29 61 61 61h305c35 0 61-29 61-61v-340c0-35-26-64-61-64z m526 0h-305c-35 0-61 29-61 61v343c0 35 29 61 61 61h305c35 0 61-29 61-61v-340c0-35-26-64-61-64z m532 0h-305c-35 0-61 29-61 61v343c0 35 29 61 61 61h305c35 0 61-29 61-61v-340c0-35-26-64-61-64z m27 1105h-1387c-35 0-61 29-61 61v165c0 35 29 61 61 61h1387c34 0 61-29 61-61v-165c0-35-27-61-61-61z" horiz-adv-x="1515" />

<glyph glyph-name="check" unicode="&#xe849;" d="M500 850c-276 0-500-224-500-500s224-500 500-500 500 224 500 500-224 500-500 500z m-92-757l-220 220 74 74 146-147 331 330 73-73-404-404z" horiz-adv-x="1000" />

<glyph glyph-name="sort-1" unicode="&#xe84a;" d="M0 850h1550v-200h-1550v200z m0-400h1550v-200h-1550v200z m0-400h1550v-200h-1550v200z" horiz-adv-x="1550" />

<glyph glyph-name="sort-2" unicode="&#xe84b;" d="M0 50v-200h305v200h-305z m0 400v-200h305v200h-305z m0 400v-200h305v200h-305z m505-800v-200h305v200h-305z m0 400v-200h305v200h-305z m0 400v-200h305v200h-305z m500-800v-200h305v200h-305z m0 400v-200h305v200h-305z m0 400v-200h305v200h-305z" horiz-adv-x="1315" />

<glyph glyph-name="speaker" unicode="&#xe84c;" d="M500 38c0-17-10-33-26-41-6-3-13-4-19-4-11 0-21 3-29 11l-249 205h-132c-25 0-45 21-45 45v181c0 25 20 45 45 45h132l249 206c14 10 32 14 48 6 16-8 26-24 26-41l0-613 0 0z m175 71c-1 0-2 0-3 0-12 0-24 4-32 13l-7 7c-16 16-18 40-4 59 34 46 52 100 52 157 0 61-21 119-59 166-15 19-13 44 3 61l6 6c9 9 22 14 35 13 13-1 24-7 33-16 54-66 82-145 82-230 0-80-25-155-72-218-9-10-21-17-34-18z m188-141c-8-9-20-15-33-16-1 0-1 0-2 0-12 0-24 4-32 13l-7 6c-17 18-18 44-2 62 73 87 114 198 114 312 0 118-43 232-121 320-17 18-15 45 2 62l6 7c9 9 21 14 34 13 12 0 24-6 32-15 94-107 146-244 146-387 0-138-48-271-137-377z" horiz-adv-x="1000" />

<glyph glyph-name="like" unicode="&#xe84d;" d="M687 447c8 11 13 25 13 38 0 14-5 25-13 35-11 11-22 14-36 14h-70c0 3 0 5 3 5 0 3 3 3 3 6 0 2 2 2 2 5 3 5 6 11 8 14 3 2 3 8 6 16 2 5 2 13 2 19 0 2 0 8 0 11 0 2 0 5 0 10 0 6-2 8-2 14 0 3-3 8-6 11-2 5-5 8-10 10-9 0-14 3-19 6-6 3-14 3-22 3-5 0-8-3-11-6-3-3-5-8-8-13-3-6-3-8-5-14 0-3-3-8-3-16-3-8-3-11-3-16 0-3-2-8-5-14-3-5-6-8-8-11-6-5-14-16-25-29-8-11-16-22-24-30-8-11-16-14-19-16-5 0-8-3-11-6-2-2-5-8-5-11v-162c0-5 3-8 5-10 3-3 8-6 11-6 6 0 19-3 41-11 13-5 24-8 29-11 9-2 17-5 30-8 14-2 25-2 35-2h6 19 8c21 0 38 8 48 19 11 10 14 27 14 46 5 5 11 13 13 24 3 11 3 19 0 30 9 10 11 21 11 35 0 8-2 13-2 21z m-303 54h-73c-6 0-8-2-11-5-3-3-5-8-5-11v-162c0-5 2-8 5-11 3-2 8-5 11-5h73c5 0 8 3 11 5 2 3 5 8 5 11v162c0 6-3 8-5 11-3 3-6 5-11 5z m-27-156c-3-3-8-6-11-6-5 0-8 3-11 6-3 2-5 8-5 10 0 6 2 9 5 11 3 3 8 6 11 6 5 0 8-3 11-6 3-2 5-8 5-11-2-5-2-8-5-10z" horiz-adv-x="1027" />

<glyph glyph-name="telegram" unicode="&#xe84f;" d="M67 350c0 265 206 482 466 499-11 1-22 1-33 1-276 0-500-224-500-500s224-500 500-500c11 0 22 0 33 1-260 17-466 234-466 499z m651 236c-4 3-10 3-14 1l-451-210c-8-4-13-12-13-20 0-9 6-17 14-20l415-181c14-6 31 4 31 19l24 399c0 5-2 9-6 12z m-14 1l-451-210c-8-4-13-12-13-20 0-9 6-17 14-20l122-53 340 303c-4 2-8 2-12 0z m14-1c-1 1-1 1-2 1l-275-332 228-99c14-6 31 4 31 19l24 399c0 5-2 9-6 12z" horiz-adv-x="1000" />

<glyph glyph-name="student" unicode="&#xe851;" d="M500 250l-298 92v-90-63c0-71 133-129 298-129 165 0 299 58 299 129 0 0-1 1-1 1v152l-298-92z m-500 198l107-39 9 20 39 3 5-6-33-8-5-14c0 0-76-159-65-236 0 0 47-29 95 0l12 212v18l71 15-5-12-53-17 25-9 298-92 298 92 202 72-500 193-500-192z" horiz-adv-x="1000" />

<glyph glyph-name="telephone" unicode="&#xe852;" d="M760 189c-32 32-73 32-106 0-24-25-49-50-73-74-7-7-13-9-21-4-16 9-33 16-48 25-72 45-132 103-185 169-27 32-50 67-67 106-3 8-3 13 4 20 25 24 49 48 73 73 34 34 34 74 0 108-19 20-39 39-58 58-20 20-40 40-60 60-33 32-74 32-106 0-25-25-49-50-74-74-24-22-36-49-38-81-4-52 9-101 27-149 36-98 92-186 160-266 91-109 200-195 327-257 58-28 117-49 182-53 45-2 83 9 114 44 22 24 45 45 68 68 33 34 33 74 0 108-39 40-79 79-119 119z m-39 165l76 14c-12 70-45 134-96 185-53 53-121 87-195 97l-11-77c58-8 110-34 152-75 39-40 64-89 74-144z m120 334c-89 89-201 145-325 162l-11-77c107-15 204-64 281-140 72-73 120-164 137-265l77 13c-20 117-75 223-159 307z" horiz-adv-x="1000" />

<glyph glyph-name="whatsup" unicode="&#xe853;" d="M0-150l86 259c-43 74-69 158-69 250 0 270 221 491 492 491s491-221 491-491-221-492-491-492c-83 0-161 21-230 57l-279-74z m822 345c-22 43-106 91-106 91-19 11-42 12-52-7 0 0-28-32-35-38-31-20-60-20-89 9l-69 69-69 69c-30 29-31 59-9 90 5 7 38 34 38 34 19 10 17 35 7 52 0 0-48 84-91 107-19 10-42 7-56-9l-31-31c-96-96-48-205 47-302l88-88 88-88c96-96 205-143 302-46l31 31c12 17 15 40 6 57z" horiz-adv-x="1000" />

<glyph glyph-name="woman" unicode="&#xe854;" d="M823 98l-160 40-9 37c110 18 167 51 169 53 6 3 10 10 10 16 1 7-2 14-8 18 0 1-75 62-75 275 0 180-42 271-125 271h-12c-30 29-53 42-113 42-78 0-250-79-250-312 0-214-74-275-75-275-5-5-9-11-8-18 0-7 4-14 10-17 2-2 58-35 169-53l-9-37-160-40c-104-26-177-120-177-227 0-12 9-21 21-21h958c12 0 21 9 21 21 0 107-73 201-177 227z" horiz-adv-x="1000" />

<glyph glyph-name="thunder" unicode="&#xe855;" d="M483 327c4-5 5-11 3-17l-131-460 546 683h-355c-6 0-13 4-16 10-4 6-4 13-1 19l144 288h-351l-221-515h366c7 0 12-3 16-8z" horiz-adv-x="1000" />

<glyph glyph-name="tick-1" unicode="&#xe856;" d="M985 703c-19 19-51 19-70 0l-599-599-231 230c-19 19-51 19-70 0-20-20-20-51 0-71l265-266c20-19 51-19 71 0l634 635c20 19 20 51 0 71z" horiz-adv-x="1000" />

<glyph glyph-name="viber-social" unicode="&#xe858;" d="M600 850h-200c-193 0-350-157-350-350v-150c0-135 78-258 200-316v-167c0-15 18-23 29-12l145 145h176c193 0 350 157 350 350v150c0 193-157 350-350 350z m-300-816c-122 57-200 181-200 316v150c0 193 157 350 350 350h-50c-193 0-350-157-350-350v-150c0-135 78-258 200-316v-167c0-15 18-23 29-12l21 21v158z m444 195l-15 81c-1 7-6 12-13 13l-118 24c-5 1-11-1-15-5l-48-47c-80 36-125 81-165 165l48 47c4 4 6 10 5 16l-24 117c-1 7-7 12-13 13l-82 15c-2 1-4 1-6 0-22-5-41-15-57-31-27-27-37-66-30-114 13-79 52-190 124-263l1-1c72-72 183-111 263-123 10-2 19-3 29-3 34 0 63 11 84 33 16 15 27 35 32 56 0 2 0 5 0 7z m-77-64c-9 0-19 0-29 2-80 13-190 52-263 124l-1 1c-72 72-111 183-123 263-6 38-1 71 16 96-7-4-12-9-18-14-27-27-37-66-30-114 13-80 52-191 124-263l1-1c72-72 183-111 263-123 10-2 19-3 29-3 34 0 63 11 84 32 6 6 11 12 15 18-19-12-42-18-68-18z m-134 402c-9 0-16-8-16-17s7-17 16-17c37 0 67-29 67-66 0-9 8-17 17-17s16 8 16 17c0 55-44 100-100 100z m0 66c-6 0-12 0-18-1-9-1-16-9-15-18s9-16 19-15c4 1 10 1 14 1 74 0 134-60 134-133 0-5 0-10-1-15-1-9 6-17 15-18s17 5 18 14c1 6 1 13 1 19 0 92-75 166-167 166z m0 67c-5 0-11 0-18-1-9 0-16-8-15-18 1-9 9-16 18-15 5 0 10 1 15 1 111 0 200-90 200-200 0-16-1-31-5-46-2-9 3-18 12-20 9-3 18 3 21 12 4 18 6 36 6 54 0 128-105 233-234 233z" horiz-adv-x="1000" />

<glyph glyph-name="users" unicode="&#xe859;" d="M921 59l-2-4c-114-133-261-205-419-205-158 0-305 74-416 207l-3 2 0 5c21 140 96 251 205 316l7 5 7-7c54-56 123-86 200-86s147 30 200 86l7 7 7-5c112-65 184-176 205-316l2-5z m-421 291c137 0 249 112 249 249s-112 251-249 251-249-112-249-249 112-251 249-251z m902-291l-2-4c-112-133-260-205-416-205-158 0-305 74-417 207l-4 2 0 5c21 140 95 251 204 316l7 5 7-7c54-56 124-86 200-86s147 30 200 86l7 7 7-5c112-65 184-176 205-316l2-5z m-418 291c137 0 249 112 249 249s-112 251-249 251-251-112-251-249 111-251 251-251z" horiz-adv-x="1605" />

<glyph glyph-name="location-pin-1" unicode="&#xe85a;" d="M500 850c-214 0-388-174-388-388 0-311 351-600 351-600 20-16 54-16 75 0 0 0 351 289 351 600-1 214-174 388-389 388z m0-584c-108 0-195 88-195 196 0 107 87 195 195 195s195-88 195-195c0-108-87-196-195-196z" horiz-adv-x="1000" />

<glyph glyph-name="location-1" unicode="&#xe85b;" d="M828 601c-3 13-10 28-16 40-64 154-204 209-316 209-152 0-318-101-340-310v-43c0-2 1-18 1-26 13-99 91-205 150-305 63-106 129-211 193-316 40 68 80 138 119 204 11 20 23 39 34 58 7 13 21 25 27 37 63 115 165 232 165 346v48c0 12-16 55-17 58z m-330-214c-44 0-93 22-117 83-3 10-3 30-3 32v27c0 78 66 114 124 114 71 0 126-57 126-128 0-71-59-128-130-128z" horiz-adv-x="1000" />

<glyph glyph-name="vk" unicode="&#xe85c;" d="M500 850c-276 0-500-224-500-500s224-500 500-500 500 224 500 500-224 500-500 500z m254-554c23-23 48-44 68-70 9-11 19-22 25-35 9-19 1-39-16-40l-102 0c-26-2-47 8-65 26-15 15-28 30-41 45-5 6-11 13-19 17-14 9-26 6-33-9-9-15-11-31-12-48-1-24-8-30-32-31-53-2-102 5-147 31-39 24-71 56-98 92-53 72-93 151-130 231-8 19-2 28 19 29 34 1 66 1 100 0 13 0 23-8 28-20 18-44 39-87 67-126 7-10 15-21 26-29 12-8 20-5 26 8 3 9 5 18 6 27 3 31 3 61-2 92-3 20-13 33-32 37-11 2-9 5-4 11 8 9 16 15 31 15l116 0c18-4 22-11 24-29l0-129c0-7 3-29 17-33 10-3 17 5 23 11 28 30 47 65 66 101 8 16 14 32 21 49 5 12 12 18 27 18l111 0c3 0 6 0 10-1 19-3 24-11 19-30-9-28-27-53-44-76-19-26-39-50-57-77-19-24-18-37 4-57z" horiz-adv-x="1000" />

<glyph glyph-name="vk-social" unicode="&#xe85d;" d="M833 296v26l135 168c21 26 32 59 32 92 0 33-27 60-59 60h-146c-23 0-43-14-52-35-28-77-66-151-111-221-14-11-33-12-49-3v213c0 25-20 46-45 46h-184c-11 0-21-10-21-21 0-6 3-11 7-15l11-11c15-16 24-37 24-58v-159c-2-2-4-3-7-4-8 1-15 6-20 12-54 77-101 159-142 244-3 7-11 12-18 12h-134c-30 0-54-25-54-54l0 0v-11c0-44 12-87 35-124 112-180 265-395 361-395h136c29 0 51 23 51 52v35c0 21 17 38 39 38 10 0 19-4 26-11l87-86c18-18 41-28 66-28h149c27 0 50 23 50 51 0 13-5 26-15 35l-152 152z" horiz-adv-x="1000" />

<glyph glyph-name="shopping-cart" unicode="&#xe85e;" d="M300 50c-55 0-100-45-100-100s45-100 100-100 100 45 100 100-45 100-100 100z m-300 800v-100h100l180-380-70-120c-5-15-10-35-10-50 0-55 45-100 100-100h600v100h-580c-5 0-10 5-10 10v5l45 85h370c40 0 70 20 85 50l180 325c10 10 10 15 10 25 0 30-20 50-50 50h-740l-45 100h-165z m800-800c-55 0-100-45-100-100s45-100 100-100 100 45 100 100-45 100-100 100z" horiz-adv-x="1000" />

<glyph glyph-name="smile" unicode="&#xe85f;" d="M495 621c-152 0-279-125-279-279s124-279 279-279 279 124 279 279-128 279-279 279z m96-166c22 0 42-19 42-41s-20-42-42-42c-22 0-41 19-41 42s19 41 41 41z m-196 0c22 0 42-19 42-41s-20-42-42-42-41 19-41 42 19 41 41 41z m100-276c-72 0-133 47-155 110h312c-25-63-86-110-157-110z" horiz-adv-x="1000" />

<glyph glyph-name="share" unicode="&#xe860;" d="M1002 349l-416 457v-272h-89c-274 0-497-223-497-497v-145l39 43c134 147 323 230 522 230h25v-272l416 456z" horiz-adv-x="1002" />

<glyph glyph-name="viber" unicode="&#xe861;" d="M500 769c12-8 22-9 52-11 88-5 143-24 205-69 76-56 124-134 142-231 5-25 7-47 9-79 1-22 2-30 7-39 6-13 20-22 35-23 2-1 4-1 5-1 14 0 27 6 35 16 11 14 11 26 10 53-3 82-22 157-54 221-23 45-45 75-85 113-42 41-74 64-123 87-53 25-90 33-144 40-11 1-31 3-46 3-27 1-38 0-50-11-10-8-15-21-15-35 1-13 7-26 17-34z m274-357c0-24 2-46 25-57 7-3 15-5 23-5 7 0 14 1 19 4 10 5 19 15 23 24 5 12 2 54 1 66-6 54-25 104-54 146-52 76-130 122-232 136-35 5-61 7-76-16-12-18-10-40 4-56 11-12 27-15 41-16 41-3 86-17 116-34l0 0c35-20 64-49 83-84 18-31 27-70 27-108z m-88 143c-23 21-50 34-84 41-8 2-22 3-30 4-15 1-20 0-31-5-12-6-21-17-23-31-3-14 0-28 9-38 11-12 21-15 43-18 36-4 56-16 68-40 5-12 9-26 10-45 2-18 6-30 19-39 8-6 18-9 28-9 11 0 22 4 30 11l1 0c16 15 17 33 12 62-7 47-23 80-52 107z m314-511c-1 18-7 34-19 48-11 14-83 70-115 92-25 17-64 41-82 50-28 14-55 16-82 7-6-1-10-3-14-5-14-8-23-19-43-43-21-25-25-30-25-30-2-1-5-3-9-4-15-7-41-2-82 19-35 16-66 38-102 70-30 26-60 61-77 88-23 38-37 81-37 101 0 8 3 19 7 25l1 2c2 1 3 2 4 4 6 5 15 12 23 19 39 30 51 43 57 65 7 21 1 47-17 82-27 51-113 161-148 184-6 4-16 9-23 11-15 5-36 7-49 4-18-4-38-15-82-47-23-18-61-52-71-69-24-39-18-74 4-132 21-55 47-111 78-165l2-3c6-11 13-22 19-33l2-2c7-11 14-22 21-32l11-17c4-6 8-12 13-18 8-12 17-24 26-35 97-126 208-227 340-309l5-3c20-12 40-24 61-35l8-5c22-11 43-22 64-32l6-2c25-12 47-22 69-30 26-11 38-14 56-14 4 0 7 0 11 0 12 1 22 2 33 5 14 5 28 12 44 23 3 2 6 4 9 6 4 3 8 6 11 10 19 16 40 39 57 62 9 12 22 30 28 45 5 15 8 29 7 43l0 0 0 0z" horiz-adv-x="1000" />

<glyph glyph-name="wallet" unicode="&#xe862;" d="M234 647l398 109-21 43c-14 27-47 39-75 25l-357-177h55z m522 106c-5 0-10-1-15-2l-93-26-286-78h324 142l-18 64c-6 26-29 42-54 42z m130-145h-13-17-17-133-488-64-54-10-34c-17 0-33-8-44-21-4-6-8-13-10-20-1-5-2-10-2-15v-7-64-555c0-31 25-56 56-56h830c31 0 56 25 56 56v157h-333c-53 0-95 43-95 95v52 17 18 38c0 26 10 49 27 67 15 15 34 25 57 28 3 0 7 1 11 1h287 17 17 12v153c0 31-25 56-56 56z m96-263c-6 5-12 9-20 12-6 1-12 3-18 3h-2-1-17-63-252c-31 0-56-26-56-57v-28-17-17-63c0-31 25-56 56-56h333 2c6 0 12 1 18 3 8 3 14 7 20 12 11 10 18 25 18 41v125c0 17-7 32-18 42z m-256-115c0-16-12-28-28-28h-18c-16 0-28 12-28 28v18c0 9 4 17 10 22 5 4 11 6 18 6h4 14c16 0 28-12 28-28v-18l0 0z" horiz-adv-x="1000" />

<glyph glyph-name="arrow-down-1" unicode="&#xe864;" d="M59 536c-6 6-9 14-9 23s3 16 9 22c12 12 33 12 45 0l395-395 396 395c12 12 32 12 45 0s12-33 0-45l-418-417c-13-12-33-12-45 0l-418 417z" horiz-adv-x="1000" />

<glyph glyph-name="3-dots" unicode="&#xe865;" d="M520 850c260 0 480-240 480-520 0-260-240-480-520-480-260 0-480 220-480 500 0 280 240 500 520 500z m1780 0c280 0 500-240 480-520s-220-480-500-480c-280 0-500 220-500 500 20 280 240 500 520 500 0 0 0 0 0 0z m1780 0c280 0 500-240 480-520 0-280-240-500-520-480-280 0-480 220-480 500 20 280 240 500 520 500z" horiz-adv-x="4600" />
</font>
</defs>
</svg>
